<?xml version="1.0" encoding="utf-8"?>
<!-- Generator: Adobe Illustrator 25.4.0, SVG Export Plug-In . SVG Version: 6.00 Build 0)  -->
<svg version="1.1" id="Layer_1" focusable="false" xmlns="http://www.w3.org/2000/svg" xmlns:xlink="http://www.w3.org/1999/xlink"
	 x="0px" y="0px" viewBox="0 0 600 600" style="enable-background:new 0 0 600 600;" xml:space="preserve">
<style type="text/css">
	.st0{fill:#F1F3F4;}
	.st1{opacity:0.4;fill:#FFFFFF;enable-background:new    ;}
	.st2{opacity:0.4;enable-background:new    ;}
</style>
<circle class="st0" cx="300" cy="300" r="300"/>
<g>
	<path class="st1" d="M356.4,174.6H243.6c-20.8,0-37.6,14-37.6,31.3v18.8c0,41.6,33.7,75.2,75.2,75.2h37.6
		c41.6,0,75.2-33.7,75.2-75.2V206C394,188.7,377.2,174.6,356.4,174.6z M271.8,234.2l-9.4,28.2l-9.4-28.2l-28.2-9.4l28.2-9.4
		l9.4-28.2l9.4,28.2l28.2,9.4L271.8,234.2z M262.4,450.5c-6.9,0-12.5,5.6-12.5,12.5v37.6H275V463
		C274.9,456.1,269.3,450.5,262.4,450.5z M337.6,450.5c-6.9,0-12.5,5.6-12.5,12.5s5.6,12.5,12.5,12.5s12.5-5.6,12.5-12.5
		C350.2,456.1,344.5,450.5,337.6,450.5z"/>
	<g>
		<path class="st2" d="M354.9,174.6H245c-20.2,0-36.6,14-36.6,31.3v18.8c0,41.5,32.8,75.2,73.3,75.2h36.6
			c40.5,0,73.3-33.7,73.3-75.2v-18.8C391.5,188.6,375.1,174.6,354.9,174.6z M272.5,234.1l-9.2,28.2l-9.2-28.2l-27.5-9.4l27.5-9.4
			l9.2-28.2l9.2,28.2l27.5,9.4L272.5,234.1z M263.3,450.3c-6.7,0-12.2,5.6-12.2,12.5v37.6h24.4v-37.6
			C275.5,455.9,270.1,450.3,263.3,450.3z M336.6,450.3c-6.7,0-12.2,5.6-12.2,12.5s5.5,12.5,12.2,12.5s12.2-5.6,12.2-12.5
			S343.3,450.3,336.6,450.3z"/>
		<path d="M379,351.2c-48.1,32-110,32-158.1,0C169.4,356.7,129,401,129,455.3v7.5c0,20.8,16.4,37.6,36.6,37.6l0,0h61v-50.1
			c0-13.8,10.9-25.1,24.4-25.1h97.7c13.5,0,24.4,11.2,24.4,25.1v50.1h61c20.2,0,36.6-16.8,36.6-37.6l0,0v-7.5
			C470.9,401,430.5,356.7,379,351.2z M177.9,274.8h10.3c26.9,63.4,98.7,92.4,160.5,64.8c28.3-12.6,50.8-35.8,63.1-64.8H422
			c6.7,0,12.2-5.6,12.2-12.5v-75.2c0-6.9-5.5-12.5-12.2-12.5h-10.3c-26.9-63.4-98.7-92.4-160.5-64.8c-28.3,12.6-50.8,35.8-63.1,64.8
			h-10.3c-6.7,0-12.2,5.6-12.2,12.5v75.2C165.6,269.2,171.1,274.8,177.9,274.8z M208.4,205.9c0-17.3,16.4-31.3,36.6-31.3h109.9
			c20.2,0,36.6,14,36.6,31.3v18.8c0,41.5-32.8,75.2-73.3,75.2h-36.6c-40.5,0-73.3-33.7-73.3-75.2V205.9z"/>
	</g>
</g>
</svg>
